<svg width="72" height="74" xmlns="http://www.w3.org/2000/svg" xmlns:xlink="http://www.w3.org/1999/xlink" xml:space="preserve" overflow="hidden"><g transform="translate(-474 -323)"><path d="M17.25 61.5 17.25 10.5 36 10.5 36 26.25 54.75 26.25 54.75 61.5 17.25 61.5ZM40.5 12.375 49.875 21.75 40.5 21.75 40.5 12.375ZM40.5 6 12.75 6 12.75 66 59.25 66 59.25 22.5 40.5 6Z" fill="#0D9489" transform="matrix(1 0 0 1.02778 474 323)"/><path d="M21.75 33.75 50.25 33.75 50.25 36.75 21.75 36.75Z" fill="#0D9489" transform="matrix(1 0 0 1.02778 474 323)"/><path d="M21.75 27.75 31.5 27.75 31.5 30.75 21.75 30.75Z" fill="#0D9489" transform="matrix(1 0 0 1.02778 474 323)"/><path d="M21.75 39.75 50.25 39.75 50.25 42.75 21.75 42.75Z" fill="#0D9489" transform="matrix(1 0 0 1.02778 474 323)"/><path d="M21.75 45.75 50.25 45.75 50.25 48.75 21.75 48.75Z" fill="#0D9489" transform="matrix(1 0 0 1.02778 474 323)"/><path d="M21.75 51.75 50.25 51.75 50.25 54.75 21.75 54.75Z" fill="#0D9489" transform="matrix(1 0 0 1.02778 474 323)"/></g></svg>